<svg xmlns="http://www.w3.org/2000/svg" viewBox="0 0 64 64">
  <defs>
    <radialGradient id="bg" cx="32" cy="28" r="30" gradientUnits="userSpaceOnUse">
      <stop offset="0" stop-color="#fff2d8"/>
      <stop offset="1" stop-color="#d2b07d"/>
    </radialGradient>
    <linearGradient id="wood" x1="0" y1="0" x2="1" y2="1">
      <stop offset="0" stop-color="#a66a3a"/>
      <stop offset="0.55" stop-color="#7b4927"/>
      <stop offset="1" stop-color="#5c341d"/>
    </linearGradient>
  </defs>

  <rect width="64" height="64" rx="12" fill="#1a1220"/>
  <circle cx="32" cy="34" r="28" fill="url(#bg)"/>
  <circle cx="32" cy="34" r="27" fill="none" stroke="url(#wood)" stroke-width="4"/>

  <g transform="translate(32 34)">
    <path d="M0 0 L0 -23 A23 23 0 0 1 19.9 -11.5 Z" fill="#d95a3b"/>
    <path d="M0 0 L19.9 -11.5 A23 23 0 0 1 19.9 11.5 Z" fill="#f2a85a"/>
    <path d="M0 0 L19.9 11.5 A23 23 0 0 1 0 23 Z" fill="#6ea74d"/>
    <path d="M0 0 L0 23 A23 23 0 0 1 -19.9 11.5 Z" fill="#3d8ea6"/>
    <path d="M0 0 L-19.9 11.5 A23 23 0 0 1 -19.9 -11.5 Z" fill="#3a678e"/>
    <path d="M0 0 L-19.9 -11.5 A23 23 0 0 1 0 -23 Z" fill="#8f6c89"/>
  </g>

  <circle cx="32" cy="34" r="7" fill="#0f223a" stroke="#2f4f73" stroke-width="1"/>
  <path d="M32 6 L38.5 16 H25.5 Z" fill="url(#wood)" stroke="#4a2a17" stroke-width="1"/>
</svg>
